<svg width="20" height="15" viewBox="0 0 20 15" fill="none" xmlns="http://www.w3.org/2000/svg">
<path d="M19.5203 3.42566C19.4193 3.30215 19.2921 3.20267 19.1479 3.13445C19.0037 3.06623 18.8461 3.03098 18.6866 3.03125H5.01459L4.73922 1.46887C4.70986 1.30244 4.62279 1.15169 4.49332 1.04308C4.36385 0.934477 4.20024 0.874964 4.03125 0.875H1.15625C0.965626 0.875 0.782809 0.950725 0.648017 1.08552C0.513225 1.22031 0.4375 1.40313 0.4375 1.59375C0.4375 1.78437 0.513225 1.96719 0.648017 2.10198C0.782809 2.23677 0.965626 2.3125 1.15625 2.3125H3.4284L5.47953 13.9374C5.50889 14.1038 5.59596 14.2546 5.72543 14.3632C5.85491 14.4718 6.01851 14.5313 6.1875 14.5312H17.6875C17.8781 14.5312 18.0609 14.4555 18.1957 14.3207C18.3305 14.1859 18.4063 14.0031 18.4063 13.8125C18.4063 13.6219 18.3305 13.4391 18.1957 13.3043C18.0609 13.1695 17.8781 13.0938 17.6875 13.0938H6.79035L6.53699 11.6562H17.3928C17.6421 11.6559 17.8836 11.5695 18.0764 11.4116C18.2693 11.2537 18.4017 11.034 18.4512 10.7897L19.7449 4.32096C19.7761 4.16441 19.7721 4.00288 19.7333 3.84806C19.6944 3.69323 19.6217 3.54896 19.5203 3.42566Z" fill="white"/>
</svg>
